<svg width="583" height="585" viewBox="0 0 583 585" fill="none" xmlns="http://www.w3.org/2000/svg">
<path d="M194 65C165.095 36.8002 134.667 51.6667 126 59C89.2 76.6 96 114.333 104 131C113.333 145.667 137.6 182.4 160 212C188 249 167 276 155 288C143 300 107 295 80 300C58 309 44 339 58 363C72 387 116 388 139 382C162 376 181 396 183 416C185 436 161 452 155 494C166 535 208 520 216 507C224 494 232 457 239 439C246 421 261 416 280 433C295.2 446.6 307.667 488 312 507C316.333 526 330 538 355 526C380 514 370.333 491.333 369 482C364.333 469.667 353.4 439.2 347 416C340.6 392.8 359 393 369 396C378 402 401.4 420.2 423 445C444.6 469.8 491.333 501.333 512 514C536 528.71 563.8 507.8 579 475C594.2 442.2 560 407.584 540 402C488.667 387.667 384.8 351.6 380 322C374 285 433 264 472 238C503.2 217.2 505.923 203 507 195C509.333 177.667 505.6 138.2 472 119C438.4 99.8 402.146 109 386 134C330.982 219.189 289.667 227 273 220C224 194 235 105 194 65Z" fill="url(#paint0_linear_1_8)"/>
<path d="M280.5 45C272.5 67.4 277.167 130.333 280.5 159C289.5 126.5 334 95 350.5 79.5C367 64 372 53 372 37.5C368.8 0.700008 335.667 -1.49999 319.5 2.00001C303.333 5.50001 288.5 22.6 280.5 45Z" fill="url(#paint1_linear_1_8)"/>
<path d="M42.5 206.5C68.5 207.5 101.833 234.167 122 250.5C103 245 58.5 257 28.5 267C-1.50002 270.5 -4.42993 235.883 4.49998 221C10.5 211 18.8268 205.589 42.5 206.5Z" fill="url(#paint2_linear_1_8)"/>
<path d="M544 300.5C511.727 274.951 456.167 298.5 433.5 312C465.5 312 498 340.5 509.5 348.5C526.5 360.326 545.288 351.108 552 342C559 332.5 556 310 544 300.5Z" fill="url(#paint3_linear_1_8)"/>
<circle cx="79" cy="454" r="16" fill="url(#paint4_linear_1_8)"/>
<circle cx="276.5" cy="541.5" r="10.5" fill="url(#paint5_linear_1_8)"/>
<circle cx="402" cy="558" r="27" fill="url(#paint6_linear_1_8)"/>
<defs>
<linearGradient id="paint0_linear_1_8" x1="197.515" y1="513.901" x2="430.72" y2="56.3766" gradientUnits="userSpaceOnUse">
<stop stop-color="#3227B5"/>
<stop offset="1" stop-color="#D923A6"/>
</linearGradient>
<linearGradient id="paint1_linear_1_8" x1="152.106" y1="341.712" x2="285.602" y2="-32.8906" gradientUnits="userSpaceOnUse">
<stop stop-color="#3227B5"/>
<stop offset="1" stop-color="#D923A6"/>
</linearGradient>
<linearGradient id="paint2_linear_1_8" x1="152.106" y1="341.712" x2="285.602" y2="-32.8906" gradientUnits="userSpaceOnUse">
<stop stop-color="#3227B5"/>
<stop offset="1" stop-color="#D923A6"/>
</linearGradient>
<linearGradient id="paint3_linear_1_8" x1="152.106" y1="341.712" x2="285.602" y2="-32.8906" gradientUnits="userSpaceOnUse">
<stop stop-color="#3227B5"/>
<stop offset="1" stop-color="#D923A6"/>
</linearGradient>
<linearGradient id="paint4_linear_1_8" x1="71.7559" y1="468.878" x2="88.0659" y2="439.78" gradientUnits="userSpaceOnUse">
<stop stop-color="#3227B5"/>
<stop offset="1" stop-color="#D923A6"/>
</linearGradient>
<linearGradient id="paint5_linear_1_8" x1="271.746" y1="551.264" x2="282.449" y2="532.168" gradientUnits="userSpaceOnUse">
<stop stop-color="#3227B5"/>
<stop offset="1" stop-color="#D923A6"/>
</linearGradient>
<linearGradient id="paint6_linear_1_8" x1="389.776" y1="583.107" x2="417.299" y2="534.003" gradientUnits="userSpaceOnUse">
<stop stop-color="#3227B5"/>
<stop offset="1" stop-color="#D923A6"/>
</linearGradient>
</defs>
</svg>
